<svg width="310" height="407" viewBox="0 0 310 407" fill="none" xmlns="http://www.w3.org/2000/svg">
<path d="M155 213.19C138.854 213.19 125.13 207.538 113.828 196.232C102.526 184.927 96.875 171.198 96.875 155.048C96.875 138.897 102.526 125.169 113.828 113.863C125.13 102.558 138.854 96.9048 155 96.9048C171.146 96.9048 184.87 102.558 196.172 113.863C207.474 125.169 213.125 138.897 213.125 155.048C213.125 171.198 207.474 184.927 196.172 196.232C184.87 207.538 171.146 213.19 155 213.19ZM38.75 407V257.282C26.4792 243.715 16.9531 228.211 10.1719 210.768C3.39063 193.325 0 174.752 0 155.048C0 111.763 15.0156 75.1012 45.0469 45.0607C75.0781 15.0202 111.729 0 155 0C198.271 0 234.922 15.0202 264.953 45.0607C294.984 75.1012 310 111.763 310 155.048C310 174.752 306.609 193.325 299.828 210.768C293.047 228.211 283.521 243.715 271.25 257.282V407L155 368.238L38.75 407ZM155 271.333C187.292 271.333 214.74 260.028 237.344 237.417C259.948 214.806 271.25 187.349 271.25 155.048C271.25 122.746 259.948 95.2897 237.344 72.6786C214.74 50.0675 187.292 38.7619 155 38.7619C122.708 38.7619 95.2604 50.0675 72.6562 72.6786C50.0521 95.2897 38.75 122.746 38.75 155.048C38.75 187.349 50.0521 214.806 72.6562 237.417C95.2604 260.028 122.708 271.333 155 271.333Z" fill="#020246"/>
</svg>
